0
SECTION
2
HEADER
0
ENDSEC
0
SECTION
2
TABLES
0
TABLE
2
LAYER
70
4
0
LAYER
2
A_Dachkante
70
0
62
2
6
CONTINUOUS
0
LAYER
2
B_Hindernisse
70
0
62
6
6
CONTINUOUS
0
LAYER
2
F_Bemaßung
70
0
62
7
6
CONTINUOUS
0
ENDTAB
0
ENDSEC
0
SECTION
2
ENTITIES
0
LINE
8
A_Dachkante
10
0.0000
20
0.0000
30
0.0
11
16.2800
21
0.0000
31
0.0
0
LINE
8
A_Dachkante
10
16.2800
20
0.0000
30
0.0
11
16.2800
21
7.4983
31
0.0
0
LINE
8
A_Dachkante
10
16.2800
20
7.4983
30
0.0
11
0.0000
21
7.4983
31
0.0
0
LINE
8
A_Dachkante
10
0.0000
20
7.4983
30
0.0
11
0.0000
21
0.0000
31
0.0
0
LINE
8
B_Hindernisse
10
5.5681
20
2.6833
30
0.0
11
6.7347
21
2.6833
31
0.0
0
LINE
8
B_Hindernisse
10
6.7347
20
2.6833
30
0.0
11
6.7347
21
4.3060
31
0.0
0
LINE
8
B_Hindernisse
10
6.7347
20
4.3060
30
0.0
11
5.5681
21
4.3060
31
0.0
0
LINE
8
B_Hindernisse
10
5.5681
20
4.3060
30
0.0
11
5.5681
21
2.6833
31
0.0
0
LINE
8
B_Hindernisse
10
9.5453
20
2.7575
30
0.0
11
10.6483
21
2.7575
31
0.0
0
LINE
8
B_Hindernisse
10
10.6483
20
2.7575
30
0.0
11
10.6483
21
4.3060
31
0.0
0
LINE
8
B_Hindernisse
10
10.6483
20
4.3060
30
0.0
11
9.5453
21
4.3060
31
0.0
0
LINE
8
B_Hindernisse
10
9.5453
20
4.3060
30
0.0
11
9.5453
21
2.7575
31
0.0
0
LINE
8
B_Hindernisse
10
7.3923
20
4.5287
30
0.0
11
9.5559
21
4.5287
31
0.0
0
LINE
8
B_Hindernisse
10
9.5559
20
4.5287
30
0.0
11
9.5559
21
7.4241
31
0.0
0
LINE
8
B_Hindernisse
10
9.5559
20
7.4241
30
0.0
11
7.3923
21
7.4241
31
0.0
0
LINE
8
B_Hindernisse
10
7.3923
20
7.4241
30
0.0
11
7.3923
21
4.5287
31
0.0
0
ENDSEC
0
EOF
